<svg width="16" height="16" viewBox="0 0 16 16" fill="none" xmlns="http://www.w3.org/2000/svg">
<rect x="5.70117" y="12" width="4.6" height="1" fill="#6C707E"/>
<path d="M6 14H10C10 14.5523 9.55228 15 9 15H7C6.44772 15 6 14.5523 6 14Z" fill="#6C707E"/>
<path fill-rule="evenodd" clip-rule="evenodd" d="M10.8707 9.14748C12.042 8.27221 12.8002 6.87465 12.8002 5.3C12.8002 2.64903 10.6512 0.5 8.0002 0.5C5.34923 0.5 3.2002 2.64903 3.2002 5.3C3.2002 6.87464 3.95842 8.27218 5.12968 9.14746L5.50018 11H10.5002L10.8707 9.14748Z" fill="#FFAF0F"/>
<path d="M8.00795 9.09045C7.61564 9.09045 7.26839 9.01587 6.9662 8.8667C6.66402 8.71753 6.4281 8.50896 6.25845 8.24101C6.0888 7.97305 6.00265 7.66504 6 7.31697H6.8827C6.8827 7.51034 6.93042 7.68161 7.02584 7.83079C7.12127 7.97719 7.25514 8.09184 7.42744 8.17471C7.59974 8.25758 7.79722 8.29902 8.01988 8.29902C8.23724 8.29902 8.4281 8.26172 8.59245 8.18714C8.75944 8.11255 8.88801 8.0062 8.97813 7.86808C9.06826 7.72996 9.11332 7.57112 9.11332 7.39156C9.11332 7.16504 9.04705 6.97029 8.91451 6.80731C8.78463 6.64432 8.61233 6.54349 8.39761 6.50482L7.46322 6.33907C7.19284 6.29211 6.95825 6.19405 6.75944 6.04487C6.56064 5.8957 6.40689 5.70924 6.29821 5.48548C6.19218 5.26172 6.13917 5.01725 6.13917 4.75206C6.13917 4.43438 6.21869 4.14985 6.37773 3.89847C6.53678 3.64708 6.75679 3.44957 7.03777 3.30592C7.32141 3.16228 7.64215 3.09045 8 3.09045C8.36315 3.09045 8.68655 3.1609 8.97018 3.30178C9.25646 3.4399 9.4778 3.63465 9.63419 3.88603C9.79324 4.13465 9.87409 4.41918 9.87674 4.73963H8.99801C8.99801 4.57388 8.95693 4.42609 8.87475 4.29626C8.79258 4.16366 8.67594 4.06145 8.52485 3.98963C8.37641 3.9178 8.20411 3.88189 8.00795 3.88189C7.81445 3.88189 7.64215 3.91642 7.49105 3.98548C7.34261 4.05454 7.22598 4.15261 7.14115 4.27968C7.05898 4.40675 7.01789 4.55454 7.01789 4.72305C7.01789 4.91918 7.07886 5.08907 7.2008 5.23272C7.32538 5.37637 7.48708 5.46614 7.68588 5.50206L8.60835 5.66366C8.87873 5.71062 9.11995 5.81697 9.33201 5.98272C9.54407 6.1457 9.70842 6.34736 9.82505 6.58769C9.94168 6.82802 10 7.08355 10 7.35427C10 7.68023 9.91518 7.97581 9.74553 8.24101C9.57853 8.50344 9.34394 8.71062 9.04175 8.86255C8.73956 9.01449 8.39496 9.09045 8.00795 9.09045Z" fill="black"/>
</svg>
