<svg width="16" height="16" viewBox="0 0 16 16" fill="none" xmlns="http://www.w3.org/2000/svg">
<g clip-path="url(#clip0_13227_9794)">
<path fill-rule="evenodd" clip-rule="evenodd" d="M9 1.5024C9 0.324655 10.2951 -0.393679 11.2942 0.229912L15.2962 2.72775C16.2372 3.3151 16.2372 4.68536 15.2962 5.27271L11.2942 7.77055C10.2951 8.39414 9 7.67581 9 6.49806V1.5024ZM10.7647 1.07823C10.4317 0.870371 10 1.10982 10 1.5024V6.49806C10 6.89064 10.4317 7.13009 10.7647 6.92223L14.7667 4.42439C15.0804 4.22861 15.0804 3.77185 14.7667 3.57607L10.7647 1.07823Z" fill="#208A3C"/>
<path d="M10 1.50275C10 1.11017 10.4317 0.870727 10.7647 1.07859L14.7667 3.57642C15.0804 3.77221 15.0804 4.22896 14.7667 4.42475L10.7647 6.92258C10.4317 7.13045 10 6.891 10 6.49842V1.50275Z" fill="#F2FCF3"/>
</g>
<defs>
<clipPath id="clip0_13227_9794">
<rect width="16" height="16" fill="white"/>
</clipPath>
</defs>
</svg>
