<svg width="16" height="16" viewBox="0 0 16 16" fill="none" xmlns="http://www.w3.org/2000/svg">
<path d="M7 14.9291V1.07089C3.60771 1.55612 1 4.47353 1 8C1 11.5265 3.60771 14.4439 7 14.9291Z" fill="#EDF3FF"/>
<path d="M9 14.9291C12.3923 14.4439 15 11.5265 15 8C15 4.47353 12.3923 1.55612 9 1.07089V14.9291Z" fill="#FFFAEB"/>
<path d="M7 2.08296C4.16229 2.55904 2 5.02701 2 8C2 10.973 4.16229 13.441 7 13.917V14.9291C3.60771 14.4439 1 11.5265 1 8C1 4.47353 3.60771 1.55612 7 1.07089V2.08296Z" fill="#3574F0"/>
<path d="M9 14.9291C12.3923 14.4439 15 11.5265 15 8C15 4.47353 12.3923 1.55612 9 1.07089V2.08296C11.8377 2.55904 14 5.02701 14 8C14 10.973 11.8377 13.441 9 13.917V14.9291Z" fill="#C27D04"/>
<path fill-rule="evenodd" clip-rule="evenodd" d="M8.14645 4.64645C8.34171 4.45118 8.65829 4.45118 8.85355 4.64645L11.8536 7.64645C12.0488 7.84171 12.0488 8.15829 11.8536 8.35355L8.85355 11.3536C8.65829 11.5488 8.34171 11.5488 8.14645 11.3536C7.95118 11.1583 7.95118 10.8417 8.14645 10.6464L10.2929 8.49998H4.5C4.22386 8.49998 4 8.27612 4 7.99998C4 7.72384 4.22386 7.49998 4.5 7.49998H10.2929L8.14645 5.35355C7.95118 5.15829 7.95118 4.84171 8.14645 4.64645Z" fill="#6C707E"/>
</svg>
