<svg width="16" height="16" viewBox="0 0 16 16" fill="none" xmlns="http://www.w3.org/2000/svg">
<path d="M7 14.9291V1.07089C3.60771 1.55612 1 4.47353 1 8C1 11.5265 3.60771 14.4439 7 14.9291Z" fill="#3D3223"/>
<path d="M9 14.9291C12.3923 14.4439 15 11.5265 15 8C15 4.47353 12.3923 1.55612 9 1.07089V14.9291Z" fill="#402929"/>
<path d="M7 2.08296C4.16229 2.55904 2 5.02701 2 8C2 10.973 4.16229 13.441 7 13.917V14.9291C3.60771 14.4439 1 11.5265 1 8C1 4.47353 3.60771 1.55612 7 1.07089V2.08296Z" fill="#D6AE58"/>
<path d="M9 14.9291C12.3923 14.4439 15 11.5265 15 8C15 4.47353 12.3923 1.55612 9 1.07089V2.08296C11.8377 2.55904 14 5.02701 14 8C14 10.973 11.8377 13.441 9 13.917V14.9291Z" fill="#DB5C5C"/>
<path d="M7.47034 4.97998H8.53244L10.7985 11H9.79664L9.26774 9.51648H6.79094L6.30074 11H5.27734L7.47034 4.97998ZM8.99254 8.72958L8.08954 6.22268L7.99494 5.84858L7.90034 6.22268L7.04464 8.72958H8.99254Z" fill="#CED0D6"/>
</svg>
