<svg width="16" height="16" viewBox="0 0 16 16" fill="none" xmlns="http://www.w3.org/2000/svg">
<path d="M7 14.9291V1.07086C3.60771 1.55609 1 4.4735 1 7.99997C1 11.5264 3.60771 14.4439 7 14.9291Z" fill="#FFFAEB"/>
<path d="M7 2.08293C4.16229 2.55901 2 5.02698 2 7.99997C2 10.973 4.16229 13.4409 7 13.917V14.9291C3.60771 14.4439 1 11.5264 1 7.99997C1 4.4735 3.60771 1.55609 7 1.07086V2.08293Z" fill="#C27D04"/>
<path fill-rule="evenodd" clip-rule="evenodd" d="M16 2.5C16 3.88071 14.8807 5 13.5 5C12.1193 5 11 3.88071 11 2.5C11 1.11929 12.1193 0 13.5 0C14.8807 0 16 1.11929 16 2.5ZM15 2.5C15 3.32843 14.3284 4 13.5 4C12.6716 4 12 3.32843 12 2.5C12 1.67157 12.6716 1 13.5 1C14.3284 1 15 1.67157 15 2.5Z" fill="#6C707E"/>
<path d="M14.6496 5.80683C14.2895 5.93199 13.9027 6 13.5 6C11.567 6 10 4.433 10 2.5C10 2.09728 10.068 1.71045 10.1932 1.35036C9.80908 1.22375 9.41028 1.12949 9 1.0708V14.929C12.3923 14.4438 15 11.5264 15 7.99991C15 7.23392 14.877 6.49667 14.6496 5.80683Z" fill="#FFF7F7"/>
<path d="M13.6574 5.99652C13.8793 6.62303 14 7.29737 14 7.9999C14 10.9729 11.8377 13.4409 9 13.9169V14.929C12.3923 14.4438 15 11.5264 15 7.9999C15 7.23391 14.877 6.49666 14.6496 5.80682C14.3367 5.91559 14.0036 5.9812 13.6574 5.99652Z" fill="#DB3B4B"/>
<path d="M4.72848 5.04999H6.07573L7.89898 9.34674L8.00098 9.67824L8.09873 9.34674L9.88373 5.04999H11.248V11H10.2067V6.76699L10.2195 6.54174L8.37073 11H7.59298L5.75273 6.57149L5.76548 6.76699V11H4.72848V5.04999Z" fill="#6C707E"/>
</svg>
