<svg width="16" height="16" viewBox="0 0 16 16" fill="none" xmlns="http://www.w3.org/2000/svg">
<path d="M7 14.9291V1.07089C3.60771 1.55612 1 4.47353 1 8C1 11.5265 3.60771 14.4439 7 14.9291Z" fill="#FFFAEB"/>
<path d="M9 14.9291C12.3923 14.4439 15 11.5265 15 8C15 4.47353 12.3923 1.55612 9 1.07089V14.9291Z" fill="#FFF7F7"/>
<path d="M7 2.08296C4.16229 2.55904 2 5.02701 2 8C2 10.973 4.16229 13.441 7 13.917V14.9291C3.60771 14.4439 1 11.5265 1 8C1 4.47353 3.60771 1.55612 7 1.07089V2.08296Z" fill="#C27D04"/>
<path d="M9 14.9291C12.3923 14.4439 15 11.5265 15 8C15 4.47353 12.3923 1.55612 9 1.07089V2.08296C11.8377 2.55904 14 5.02701 14 8C14 10.973 11.8377 13.441 9 13.917V14.9291Z" fill="#DB3B4B"/>
<path fill-rule="evenodd" clip-rule="evenodd" d="M7.5 5.5H5V4.5H11V5.5H8.5V11.5H7.5V5.5Z" fill="#6C707E"/>
</svg>
