<svg width="20" height="20" viewBox="0 0 20 20" fill="none" xmlns="http://www.w3.org/2000/svg">
<path d="M1.75 12.5C2.16421 12.5 2.5 12.8358 2.5 13.25V18.25C2.5 18.6642 2.16421 19 1.75 19C1.33579 19 1 18.6642 1 18.25V13.25C1 12.8358 1.33579 12.5 1.75 12.5Z" fill="#CED0D6"/>
<path d="M4.5 11C4.91421 11 5.25 11.3358 5.25 11.75V18.25C5.25 18.6642 4.91421 19 4.5 19C4.08579 19 3.75 18.6642 3.75 18.25V11.75C3.75 11.3358 4.08579 11 4.5 11Z" fill="#CED0D6"/>
<path d="M7.25 14C7.66421 14 8 14.3358 8 14.75V18.25C8 18.6642 7.66421 19 7.25 19C6.83579 19 6.5 18.6642 6.5 18.25V14.75C6.5 14.3358 6.83579 14 7.25 14Z" fill="#CED0D6"/>
<path d="M9 2C12.866 2 16 5.13401 16 9C16 10.6483 15.4288 12.1624 14.4756 13.3584C14.5067 13.3815 14.5372 13.4064 14.5654 13.4346L18.5654 17.4346C18.8778 17.747 18.8778 18.253 18.5654 18.5654C18.253 18.8778 17.747 18.8778 17.4346 18.5654L13.4346 14.5654C13.4064 14.5372 13.3815 14.5067 13.3584 14.4756C12.2844 15.3316 10.9538 15.8776 9.5 15.9805V14.4746C12.3031 14.2219 14.5 11.8689 14.5 9C14.5 5.96243 12.0376 3.5 9 3.5C5.96243 3.5 3.5 5.96243 3.5 9C3.5 9.2413 3.51674 9.47882 3.54688 9.71191C2.97796 9.97853 2.53879 10.4759 2.35059 11.084C2.33766 11.0804 2.32453 11.0776 2.31152 11.0742C2.10851 10.4189 2 9.72207 2 9C2 5.13401 5.13401 2 9 2Z" fill="#CED0D6"/>
</svg>
