<svg width="16" height="16" viewBox="0 0 16 16" fill="none" xmlns="http://www.w3.org/2000/svg">
<path d="M1.5 10C1.77614 10 2 10.2239 2 10.5V14.5C2 14.7761 1.77614 15 1.5 15C1.22386 15 1 14.7761 1 14.5V10.5C1 10.2239 1.22386 10 1.5 10Z" fill="#CED0D6"/>
<path d="M3.5 9C3.77614 9 4 9.22386 4 9.5V14.5C4 14.7761 3.77614 15 3.5 15C3.22386 15 3 14.7761 3 14.5V9.5C3 9.22386 3.22386 9 3.5 9Z" fill="#CED0D6"/>
<path d="M5.5 11C5.77614 11 6 11.2239 6 11.5V14.5C6 14.7761 5.77614 15 5.5 15C5.22386 15 5 14.7761 5 14.5V11.5C5 11.2239 5.22386 11 5.5 11Z" fill="#CED0D6"/>
<path d="M7 2C9.76142 2 12 4.23858 12 7C12 8.20072 11.5765 9.30308 10.8711 10.165L13.8525 13.1426C14.0477 13.3377 14.0476 13.6543 13.8525 13.8496C13.6574 14.0446 13.3408 14.0446 13.1455 13.8496L10.1641 10.8721C9.3022 11.5772 8.20041 12 7 12V11C9.20914 11 11 9.20914 11 7C11 4.79086 9.20914 3 7 3C4.79086 3 3 4.79086 3 7C3 7.36117 3.04796 7.71113 3.1377 8.04395C2.78316 8.1319 2.47804 8.34593 2.27344 8.63574C2.0961 8.12323 2 7.57282 2 7C2 4.23858 4.23858 2 7 2Z" fill="#CED0D6"/>
</svg>
