<svg width="16" height="16" viewBox="0 0 16 16" fill="none" xmlns="http://www.w3.org/2000/svg">
<circle cx="8" cy="8" r="6.5" fill="#2F2936" stroke="#A571E6"/>
<path fill-rule="evenodd" clip-rule="evenodd" d="M7.68051 7.53024L8.64751 5.88024L6.99951 5.18524L7.25151 4.43824L8.97651 4.91024L9.14251 3.00024L9.91451 3.00424L10.0415 4.88424L11.7735 4.46324L11.9995 5.21224L10.3605 5.88824L11.3075 7.54924L10.6875 8.00824L9.50751 6.48824L8.29551 7.99524L7.68051 7.53024Z" fill="#A571E6"/>
<path fill-rule="evenodd" clip-rule="evenodd" d="M6.5 7C6.77614 7 7 7.22386 7 7.5V9H8.5C8.77614 9 9 9.22386 9 9.5C9 9.77614 8.77614 10 8.5 10H7V11.5C7 11.7761 6.77614 12 6.5 12C6.22386 12 6 11.7761 6 11.5V10H4.5C4.22386 10 4 9.77614 4 9.5C4 9.22386 4.22386 9 4.5 9H6V7.5C6 7.22386 6.22386 7 6.5 7Z" fill="#A571E6"/>
</svg>
