<svg width="16" height="16" viewBox="0 0 16 16" fill="none" xmlns="http://www.w3.org/2000/svg">
<circle cx="8" cy="8" r="6.5" fill="#25324D" stroke="#548AF7"/>
<path d="M9.93149 6.26376L11.1495 5.56076C10.4175 4.61776 9.28549 3.99976 7.99949 3.99976C6.72849 3.99976 5.60949 4.60476 4.87549 5.52976C4.87549 5.52976 7.38249 3.08776 9.93149 6.26376Z" fill="#548AF7"/>
<path d="M8.54004 10.5498V11.9458C10.491 11.6798 12 10.0248 12 7.99979C12 7.43941 11.8821 6.90677 11.673 6.42159C11.6711 6.41709 11.67 6.41479 11.67 6.41479C11.671 6.41706 11.672 6.41932 11.673 6.42159C11.737 6.57306 12.786 9.21929 8.54004 10.5498Z" fill="#548AF7"/>
<path d="M4.34849 6.38013L5.56749 7.08313C4.14749 11.3231 7.54049 11.9541 7.54049 11.9541C5.54949 11.7231 4.00049 10.0521 4.00049 8.00013C4.00049 7.42213 4.12849 6.87613 4.34849 6.38013Z" fill="#548AF7"/>
</svg>
