<svg width="16" height="16" viewBox="0 0 16 16" fill="none" xmlns="http://www.w3.org/2000/svg">
<path d="M2.63333 2C1.73127 2 1 2.83574 1 3.86667V12.1333C1 13.1643 1.73127 14 2.63333 14H8V12.9146C7.4174 12.7087 7 12.1531 7 11.5C7 10.8469 7.4174 10.2913 8 10.0853V3.51351L6.84336 2.30775C6.65477 2.11115 6.39413 2 6.1217 2H2.63333Z" fill="#EDF3FF"/>
<path d="M8 4.95807L6.1217 3L2.63333 3C2.40481 3 2 3.25841 2 3.86667V12.1333C2 12.7416 2.40481 13 2.63333 13H8V14H2.63333C1.73127 14 1 13.1643 1 12.1333V3.86667C1 2.83574 1.73127 2 2.63333 2H6.1217C6.39413 2 6.65477 2.11115 6.84336 2.30775L8 3.51351V4.95807Z" fill="#3574F0"/>
<path fill-rule="evenodd" clip-rule="evenodd" d="M12.1464 8.14645C12.3417 7.95118 12.6583 7.95118 12.8536 8.14645L15.8536 11.1464C16.0488 11.3417 16.0488 11.6583 15.8536 11.8536L12.8536 14.8536C12.6583 15.0488 12.3417 15.0488 12.1464 14.8536C11.9512 14.6583 11.9512 14.3417 12.1464 14.1464L14.2929 12H8.5C8.22386 12 8 11.7761 8 11.5C8 11.2238 8.22386 11 8.5 11H14.2929L12.1464 8.85355C11.9512 8.65829 11.9512 8.34171 12.1464 8.14645Z" fill="#6C707E"/>
<path d="M8 12.9146V13.9999H11.0854C11.1577 13.7952 11.2756 13.6031 11.4393 13.4393L11.8787 13H8.5C8.32468 13 8.15639 12.9699 8 12.9146Z" fill="#FFFAEB"/>
<path d="M8 10.0853C8.15639 10.0301 8.32468 9.99998 8.5 9.99998H11.8787L11.4393 9.56066C10.8536 8.97487 10.8536 8.02513 11.4393 7.43934C12.0251 6.85355 12.9749 6.85355 13.5607 7.43934L15 8.87868V5.99991C15 4.89534 14.1046 3.99991 13 3.99991H8.46667L8 3.51343V10.0853Z" fill="#FFFAEB"/>
<path d="M11.0854 13.9999H8V12.9999H8.4857C8.49046 13 8.49523 13 8.5 13H11.8787L11.4393 13.4393C11.2756 13.6031 11.1577 13.7952 11.0854 13.9999Z" fill="#C27D04"/>
<path d="M15 8.87868V5.99991C15 4.89534 14.1046 3.99991 13 3.99991H8.46667L8 3.51343V4.95799L8.04022 4.99991H13C13.5523 4.99991 14 5.44763 14 5.99991V7.87868L15 8.87868Z" fill="#C27D04"/>
</svg>
